<?xml version="1.0" encoding="utf-8"?>
<!-- Generator: Adobe Illustrator 27.5.0, SVG Export Plug-In . SVG Version: 6.00 Build 0)  -->
<svg version="1.1" xmlns="http://www.w3.org/2000/svg" xmlns:xlink="http://www.w3.org/1999/xlink" x="0px" y="0px"
	 viewBox="0 0 500 500" style="enable-background:new 0 0 500 500;" xml:space="preserve">
<g id="BACKGROUND">
	<rect style="fill:#FFFFFF;" width="500" height="500"/>
</g>
<g id="OBJECTS">
	<g>
		<path style="fill:#DFE6FF;" d="M465.492,289.135c0,54.021-19.783,103.399-52.508,141.32c-0.2,0.228-0.4,0.466-0.609,0.695
			c-1.836,2.122-3.73,4.206-5.662,6.252c-0.895,0.961-1.808,1.913-2.721,2.855c-1.998,2.036-4.035,4.044-6.1,6.005H100.312
			c-2.065-1.96-4.101-3.968-6.1-6.005c-0.914-0.942-1.827-1.894-2.722-2.855c-1.389-1.465-2.741-2.95-4.082-4.453
			c-0.514-0.58-1.028-1.161-1.532-1.741c-33.115-38.016-53.165-87.698-53.165-142.071c0-119.509,96.881-216.39,216.39-216.39
			S465.492,169.625,465.492,289.135z"/>
		
			<ellipse transform="matrix(0.1662 -0.9861 0.9861 0.1662 152.8469 483.1588)" style="fill:#DFE6FF;" cx="362.131" cy="151.196" rx="64.337" ry="64.337"/>
		<circle style="fill:#DFE6FF;" cx="405.67" cy="363.83" r="58.105"/>
		
			<ellipse transform="matrix(0.2399 -0.9708 0.9708 0.2399 -88.1056 240.0629)" style="fill:#DFE6FF;" cx="109.256" cy="176.297" rx="70.144" ry="70.144"/>
		<circle style="fill:#DFE6FF;" cx="336.985" cy="66.863" r="13.123"/>
		<circle style="fill:#DFE6FF;" cx="123.921" cy="79.958" r="18.428"/>
		<circle style="fill:#DFE6FF;" cx="42.164" cy="393.734" r="9.452"/>
	</g>
	<g>
		<g>
			<g>
				<ellipse style="fill:#FF7C80;" cx="419.488" cy="315.691" rx="32.038" ry="29.192"/>
				<path style="fill:#FF7C80;" d="M381.676,334.503c0,0,7.951-3.062,10.53-9.348l7.092,7.575
					C399.297,332.73,390.325,337.243,381.676,334.503z"/>
				<ellipse style="fill:#FF9092;" cx="418.369" cy="313.985" rx="27.882" ry="25.405"/>
				<ellipse style="fill:#FFA6A6;" cx="417.06" cy="312.857" rx="24.726" ry="22.529"/>
				<g>
					<path style="fill:#FFB8BF;" d="M413.887,292.168c0.96,2.279-1.139,5.339-4.689,6.835c-3.55,1.496-7.206,0.861-8.167-1.418
						c-0.96-2.279,1.139-5.339,4.689-6.835C409.27,289.254,412.926,289.889,413.887,292.168z"/>
					<path style="fill:#FFB8BF;" d="M399.438,297.721c0.692,0.692,0.379,2.126-0.698,3.203c-1.077,1.077-2.511,1.39-3.203,0.698
						c-0.692-0.692-0.379-2.125,0.698-3.203C397.313,297.342,398.747,297.029,399.438,297.721z"/>
				</g>
			</g>
			<g>
				<g>
					<path style="fill:#FFFFFF;" d="M433.843,328.942h-28.709c-2.586,0-4.69-2.104-4.69-4.69v-16.068
						c0-2.587,2.104-4.691,4.69-4.691h28.709c2.586,0,4.69,2.104,4.69,4.691v16.068
						C438.533,326.837,436.429,328.942,433.843,328.942z M405.133,307.018c-0.642,0-1.164,0.523-1.164,1.165v16.068
						c0,0.642,0.522,1.164,1.164,1.164h28.709c0.642,0,1.164-0.522,1.164-1.164v-16.068c0-0.642-0.522-1.165-1.164-1.165H405.133z"
						/>
				</g>
				<g>
					<path style="fill:#FFFFFF;" d="M419.489,317.98c-0.31,0-0.618-0.081-0.895-0.244l-16.662-9.816
						c-0.838-0.495-1.118-1.575-0.624-2.414c0.495-0.838,1.578-1.115,2.414-0.624l15.767,9.289l15.766-9.289
						c0.838-0.49,1.919-0.214,2.414,0.624c0.494,0.839,0.214,1.919-0.624,2.414l-16.661,9.816
						C420.107,317.899,419.798,317.98,419.489,317.98z"/>
				</g>
			</g>
		</g>
		<g>
			<g>
				<g>
					<path style="fill:#FFB30F;" d="M203.076,200.721h-50.361c-3.764,0-6.816-3.051-6.816-6.816V158.69
						c0-3.764,3.051-6.816,6.816-6.816h50.361c3.764,0,6.816,3.051,6.816,6.816v35.215
						C209.891,197.669,206.84,200.721,203.076,200.721z"/>
					<path style="fill:#FFC41A;" d="M201.073,195.279h-47.238c-3.198,0-5.79-2.592-5.79-5.79v-29.869c0-3.198,2.592-5.79,5.79-5.79
						h47.238c3.197,0,5.79,2.592,5.79,5.79v29.869C206.862,192.687,204.27,195.279,201.073,195.279z"/>
					<path style="fill:#FFD32C;" d="M194.703,190.813h-39.99c-2.707,0-4.901-2.194-4.901-4.901v-25.286
						c0-2.707,2.194-4.901,4.901-4.901h39.99c2.707,0,4.901,2.194,4.901,4.901v25.286
						C199.604,188.618,197.41,190.813,194.703,190.813z"/>
					<g>
						<path style="fill:#FFEA54;" d="M162.319,156.576h-4.686c-0.758,0-1.373-0.615-1.373-1.373l0,0
							c0-0.758,0.615-1.373,1.373-1.373h4.686c0.758,0,1.373,0.615,1.373,1.373l0,0
							C163.692,155.962,163.078,156.576,162.319,156.576z"/>
						<path style="fill:#FFEA54;" d="M153.753,156.576h-0.734c-0.758,0-1.373-0.615-1.373-1.373l0,0
							c0-0.758,0.615-1.373,1.373-1.373h0.734c0.758,0,1.373,0.615,1.373,1.373l0,0
							C155.125,155.962,154.511,156.576,153.753,156.576z"/>
					</g>
				</g>
				<g>
					<g>
						<path style="fill:#F6F6F7;" d="M173.416,190.815c-0.118,0.177-0.271,0.33-0.436,0.471c-0.554,0.471-1.237,0.707-1.908,0.707
							c-0.836,0-1.661-0.353-2.25-1.037l-0.118-0.141l-11.297-13.3c-0.978-1.154-0.931-2.851,0.106-3.935l11.427-12.051
							c1.107-1.19,2.98-1.237,4.158-0.118c1.178,1.119,1.225,2.98,0.106,4.158l-9.601,10.143l9.719,11.427
							C174.229,188.212,174.241,189.743,173.416,190.815z"/>
					</g>
					<g>
						<path style="fill:#F6F6F7;" d="M198.391,177.515l-11.309,13.3l-0.118,0.141c-0.577,0.683-1.414,1.037-2.25,1.037
							c-0.671,0-1.343-0.236-1.897-0.707c-0.177-0.141-0.33-0.306-0.459-0.471c-0.801-1.084-0.789-2.615,0.118-3.675l9.707-11.427
							l-9.601-10.143c-1.119-1.178-1.072-3.039,0.106-4.158c1.19-1.119,3.051-1.072,4.17,0.118l11.427,12.051
							C199.309,174.664,199.357,176.361,198.391,177.515z"/>
					</g>
					<path style="fill:#FFFFFF;" d="M173.322,187.14c0.907,1.072,0.919,2.604,0.094,3.675h-4.712l-11.297-13.3
						c-0.978-1.154-0.931-2.851,0.106-3.935l11.427-12.051c1.107-1.19,2.98-1.237,4.158-0.118c1.178,1.119,1.225,2.98,0.106,4.158
						l-9.601,10.143L173.322,187.14z"/>
					<path style="fill:#FFFFFF;" d="M198.391,177.515l-11.309,13.3h-4.724c-0.801-1.084-0.789-2.615,0.118-3.675l9.707-11.427
						l-9.601-10.143c-1.119-1.178-1.072-3.039,0.106-4.158c1.19-1.119,3.051-1.072,4.17,0.118l11.427,12.051
						C199.309,174.664,199.357,176.361,198.391,177.515z"/>
				</g>
			</g>
			<g>
				<g>
					<path style="fill:#D6495D;" d="M123.18,200.721H66.13c-3.973,0-7.194-3.221-7.194-7.194v-34.457
						c0-3.973,3.221-7.194,7.194-7.194h57.05c3.973,0,7.194,3.221,7.194,7.194v34.457C130.375,197.5,127.154,200.721,123.18,200.721
						z"/>
					<g>
						<path style="fill:#E2505E;" d="M118.132,195.279H67.061c-3.198,0-5.79-2.592-5.79-5.79v-29.869c0-3.198,2.592-5.79,5.79-5.79
							h51.071c3.198,0,5.79,2.592,5.79,5.79v29.869C123.921,192.687,121.329,195.279,118.132,195.279z"/>
						<path style="fill:#EA5C6A;" d="M111.762,190.813H67.939c-2.707,0-4.901-2.194-4.901-4.901v-25.286
							c0-2.707,2.194-4.901,4.901-4.901h43.823c2.707,0,4.901,2.194,4.901,4.901v25.286
							C116.663,188.618,114.469,190.813,111.762,190.813z"/>
					</g>
				</g>
				<g>
					<g>
						<path style="fill:#FFFFFF;" d="M119.52,165.233H68.276c-1.627,0-2.945-1.318-2.945-2.945c0-1.627,1.318-2.945,2.945-2.945
							h51.244c1.627,0,2.945,1.318,2.945,2.945C122.465,163.914,121.147,165.233,119.52,165.233z"/>
					</g>
					<g>
						<path style="fill:#FFFFFF;" d="M119.52,179.242H68.276c-1.627,0-2.945-1.318-2.945-2.945s1.318-2.945,2.945-2.945h51.244
							c1.627,0,2.945,1.318,2.945,2.945S121.147,179.242,119.52,179.242z"/>
					</g>
					<g>
						<path style="fill:#FFFFFF;" d="M94.655,193.253H68.276c-1.627,0-2.945-1.318-2.945-2.945s1.318-2.945,2.945-2.945h26.379
							c1.627,0,2.945,1.318,2.945,2.945S96.282,193.253,94.655,193.253z"/>
					</g>
				</g>
				<g>
					<path style="fill:#F67C88;" d="M76.618,156.245h-4.686c-0.758,0-1.373-0.615-1.373-1.373l0,0c0-0.758,0.615-1.373,1.373-1.373
						h4.686c0.758,0,1.373,0.615,1.373,1.373l0,0C77.991,155.63,77.376,156.245,76.618,156.245z"/>
					<path style="fill:#F67C88;" d="M68.051,156.245h-0.734c-0.758,0-1.372-0.615-1.372-1.373l0,0c0-0.758,0.615-1.373,1.372-1.373
						h0.734c0.758,0,1.372,0.615,1.372,1.373l0,0C69.424,155.63,68.809,156.245,68.051,156.245z"/>
				</g>
			</g>
			<g>
				<path style="fill:#FFFFFF;" d="M209.888,221.148v70.587c0,4.771-3.864,8.635-8.635,8.635H67.571
					c-4.771,0-8.635-3.864-8.635-8.635v-70.587c0-4.771,3.864-8.635,8.635-8.635h133.682
					C206.024,212.513,209.888,216.377,209.888,221.148z"/>
				<path style="fill:#FAFAFC;" d="M209.888,262.862v28.873c0,4.771-3.864,8.635-8.635,8.635H67.571
					c-4.771,0-8.635-3.864-8.635-8.635v-28.873c6.762-22.842,23.619-41.337,45.389-50.349h60.174
					C186.269,221.525,203.126,240.02,209.888,262.862z"/>
				<path style="fill:#F6F6F7;" d="M191.688,285.268c0,5.23-0.695,10.296-2.014,15.102H79.163
					c-1.319-4.806-2.014-9.872-2.014-15.102c0-31.63,25.634-57.276,57.264-57.276C166.042,227.992,191.688,253.638,191.688,285.268z
					"/>
			</g>
			<g>
				<circle style="fill:#D9D9F4;" cx="187.983" cy="223.279" r="3.654"/>
				<circle style="fill:#D9D9F4;" cx="199.45" cy="223.279" r="3.654"/>
			</g>
			<g>
				<defs>
					<path id="SVGID_1_" d="M201.254,300.372H67.573c-4.77,0-8.637-3.867-8.637-8.637v-70.587c0-4.77,3.867-8.638,8.637-8.638
						h133.681c4.77,0,8.637,3.867,8.637,8.638v70.587C209.891,296.505,206.024,300.372,201.254,300.372z"/>
				</defs>
				<clipPath id="SVGID_00000173122419200729867640000010349585619116451741_">
					<use xlink:href="#SVGID_1_"  style="overflow:visible;"/>
				</clipPath>
				<g style="clip-path:url(#SVGID_00000173122419200729867640000010349585619116451741_);">
					<g>
						<path style="fill:#FFB89B;" d="M142.42,278.363v9.768c0,1.5,0,2.519,0,2.519c-8.68,4.294-16.387-2.439-16.387-2.439
							c0.137-0.664,0.241-1.832,0.321-3.172c0.218-3.722,0.263-8.817,0.263-8.817L142.42,278.363z"/>
						<path style="fill:#FF9A7E;" d="M142.42,278.363v9.768c-4.844-0.263-11.268-1.031-16.066-3.092
							c0.218-3.722,0.263-8.817,0.263-8.817L142.42,278.363z"/>
					</g>
					<g>
						<g>
							<path style="fill:#FFB89B;" d="M167.725,257.257c0,0,5.823-4.205,10.015-0.603c1.8,1.547,2.593,4.05,1.795,6.285
								c-0.901,2.523-3.739,5.516-12.073,5.745L167.725,257.257z"/>
							<g>
								<path style="fill:#FF9A7E;" d="M167.495,259.766v6.415c1.833-0.082,3.295-0.329,4.459-0.669
									c1.318-0.381,2.245-0.906,2.904-1.462c2.574-2.194,0.525-6.446-2.832-6.014c-1.112,0.144-2.224,0.556-3.192,1.009
									c0,0,0,0-0.01,0C168.329,259.282,167.877,259.539,167.495,259.766z"/>
								<path style="fill:#D6806B;" d="M167.495,259.766v6.415c1.833-0.082,3.295-0.329,4.459-0.669
									c0.463-0.247,0.855-0.505,1.174-0.783c2.574-2.193,0.525-6.446-2.832-6.014c-0.484,0.062-0.978,0.175-1.462,0.329
									c0,0,0,0-0.01,0C168.329,259.282,167.877,259.539,167.495,259.766z"/>
							</g>
						</g>
						<g>
							<path style="fill:#3A346E;" d="M113.554,243.254c0,0-0.937-14.564-12.68-16.254c-7.014-1.01-13.619,3.554-15.732,10.318
								c-0.393,1.259-0.723,2.606-0.933,4.007c-1.154,7.72,4.802,14.826,12.601,15.142c3.811,0.155,8.56-0.596,14.079-3.332
								L113.554,243.254z"/>
							<path style="fill:#2D2B59;" d="M113.552,243.254l-2.668,9.882c-5.519,2.737-10.26,3.481-14.073,3.332
								c-6.481-0.275-11.68-5.199-12.596-11.302c2.107,5.176,6.504,7.008,10.123,7.592c2.783,0.447,5.428-1.523,5.771-4.329
								c1.019-8.313,5.439-15.035,7.787-18.092C113.025,235.147,113.552,243.254,113.552,243.254z"/>
							<path style="fill:#403D7F;" d="M104.698,229.503c0,0-6.65,8.371-8.119,17.827c-0.232,1.494-1.534,2.596-3.041,2.467
								c-0.412-0.035-0.852-0.092-1.306-0.179c-4.592-0.88-7.367-5.594-6.207-10.124c0.771-3.007,2.601-7.09,6.949-9.807
								c2.779-1.737,6.184-2.348,9.312-1.37C103.126,228.58,103.962,228.959,104.698,229.503z"/>
							<g>
								<path style="fill:#52529E;" d="M100.675,229.062c0.269,1.188-1.241,2.543-3.372,3.025c-2.131,0.482-4.077-0.09-4.346-1.279
									c-0.269-1.189,1.241-2.543,3.372-3.025C98.46,227.301,100.406,227.873,100.675,229.062z"/>
								<path style="fill:#52529E;" d="M92.124,231.236c0.263,0.348-0.03,1.012-0.654,1.484c-0.624,0.472-1.343,0.572-1.606,0.224
									c-0.263-0.348,0.03-1.012,0.654-1.484C91.142,230.989,91.861,230.889,92.124,231.236z"/>
							</g>
						</g>
						<g>
							<path style="fill:#2D2B59;" d="M171.492,250.012c0,0,5.479-10.87-2.458-19.221c-2.722-2.864-6.452-4.549-10.373-5.027
								c-3.617-0.441-8.533-0.492-12.054,1.598c0,0-2.965-1.599-7.523-2.691c-16.754-4.014-33.244,7.406-35.511,24.484
								c-0.8,6.028,0.252,12.811,5.692,19.059L171.492,250.012z"/>
							<path style="fill:#3A346E;" d="M173.223,239.693c-3.149-4.374-11.085-11.52-28.032-8.199c0,0-4.947,19.387-29.589,19.387
								c0,0-2.725,7.97-11.497,7.787c-0.859-3.252-0.928-6.481-0.527-9.516c2.267-17.074,18.745-28.49,35.51-24.482
								c4.557,1.099,7.523,2.691,7.523,2.691c3.515-2.084,8.428-2.038,12.046-1.592c3.928,0.469,7.649,2.164,10.375,5.027
								C171.734,233.647,172.891,236.796,173.223,239.693z"/>
							<path style="fill:#403D7F;" d="M141.954,229.184c-1.962,4.751-9.435,18.922-28.4,17.618c0,0-2.23,6.533-8.027,7.637
								c0,0-1.199-9.666,6.159-18.665c6.066-7.418,15.595-11.346,25.053-9.806c1.394,0.227,2.824,0.576,4.25,1.084
								C141.858,227.364,142.306,228.331,141.954,229.184z"/>
							<path style="fill:#403D7F;" d="M148.13,228.553c0,0,14.048-2.331,21.409,5.03C169.54,233.583,162.485,221.559,148.13,228.553
								z"/>
							<g>
								<path style="fill:#52529E;" d="M136.374,226.84c0.083,1.394-2.173,2.663-5.039,2.834c-2.866,0.171-5.257-0.82-5.34-2.214
									c-0.083-1.394,2.173-2.663,5.039-2.834C133.9,224.454,136.29,225.446,136.374,226.84z"/>
								<path style="fill:#52529E;" d="M124.87,227.262c0.152,0.448-0.42,1.048-1.279,1.34c-0.859,0.292-1.678,0.166-1.831-0.282
									c-0.152-0.448,0.42-1.048,1.279-1.34S124.718,226.814,124.87,227.262z"/>
							</g>
						</g>
						<path style="fill:#FFB89B;" d="M148.589,235.714c0,0,28.73-2.21,22.49,26.78c0,0,9.057,15.634-13.482,21.372
							c-4.701,1.197-9.569,1.545-14.413,1.286c-8.418-0.45-21.745-2.398-22.805-10.178c0,0-13.173-0.235-13.413-7.97
							c-0.105-3.386,2.571-6.292,5.934-6.691c2.001-0.237,4.494,0.105,7.186,1.953v-6.63
							C120.086,255.637,144.429,255.865,148.589,235.714z"/>
						<path style="fill:#FF9A7E;" d="M171.482,249.976c-0.355-0.676-6.126-11.451-20.131-11.451c0,0-4.099,21.047-31.227,17.108
							c1.042,0,24.391-0.218,28.467-19.913C148.592,235.719,168.161,234.219,171.482,249.976z"/>
						<g>
							<g>
								<path style="fill:#3A346E;" d="M133.095,260.984c0.119,4.137,3.028,7.41,6.498,7.311c3.47-0.099,6.187-3.533,6.069-7.67
									c-0.118-4.137-3.028-7.41-6.498-7.311C135.694,253.413,132.977,256.847,133.095,260.984z"/>
								<path style="fill:#2D2B59;" d="M135.777,261.446c0.083,2.894,2.128,5.184,4.567,5.114c2.44-0.07,4.35-2.473,4.268-5.367
									c-0.083-2.894-2.128-5.184-4.567-5.114C137.605,256.149,135.694,258.552,135.777,261.446z"/>
								<path style="fill:#FFFFFF;" d="M137.873,258.365c0.048,1.667,1.438,2.98,3.105,2.932c1.667-0.048,2.979-1.438,2.932-3.104
									c-0.048-1.667-1.438-2.979-3.105-2.932C139.138,255.309,137.825,256.698,137.873,258.365z"/>
							</g>
							<g>
								<path style="fill:#3A346E;" d="M159.288,259.451c0.096,3.339,2.443,5.981,5.244,5.901c2.801-0.08,4.994-2.852,4.898-6.191
									c-0.096-3.339-2.443-5.981-5.244-5.9C161.385,253.341,159.192,256.113,159.288,259.451z"/>
								<path style="fill:#2D2B59;" d="M161.452,259.824c0.067,2.336,1.717,4.184,3.686,4.128c1.969-0.056,3.511-1.996,3.444-4.332
									c-0.067-2.336-1.717-4.184-3.686-4.128C162.927,255.549,161.385,257.488,161.452,259.824z"/>
								<path style="fill:#FFFFFF;" d="M163.143,257.338c0.038,1.345,1.16,2.405,2.506,2.366c1.345-0.039,2.405-1.16,2.366-2.506
									c-0.038-1.345-1.16-2.405-2.506-2.366C164.164,254.871,163.105,255.993,163.143,257.338z"/>
							</g>
							<path style="fill:#2D2B59;" d="M138.87,249.967c-2.486,0.008-6.916,0.6-9.303,4.377c0,0-0.247-7.937,9.264-8.132
								c0.773-0.016,1.475,0.455,1.767,1.171c0.016,0.039,0.031,0.078,0.046,0.119C141.088,248.703,140.15,249.963,138.87,249.967z"
								/>
							<path style="fill:#2D2B59;" d="M163.908,249.167c1.834-0.099,5.129,0.15,7.05,2.837c0,0-0.153-5.867-7.18-5.608
								c-0.571,0.021-1.07,0.398-1.254,0.939c-0.01,0.029-0.02,0.059-0.029,0.09C162.218,248.329,162.963,249.218,163.908,249.167z"
								/>
							<path style="fill:#2D2B59;" d="M153.34,263.763c0.429-0.823,1.278-1.393,2.27-1.422c1.459-0.042,2.676,1.108,2.718,2.572
								c0.016,0.57-0.15,1.101-0.442,1.542c0.727-0.537,1.184-1.406,1.156-2.378c-0.045-1.587-1.364-2.832-2.951-2.786
								C154.672,261.331,153.523,262.396,153.34,263.763z"/>
							<g>
								<path style="fill:#2D2B59;" d="M144.89,271.446c0,0,0.3,4.355,4.081,5.892c1.606,0.655,3.426,0.629,5.026-0.027
									c1.694-0.701,3.741-2.273,4.053-5.817c0,0-0.461-0.146-1.246-0.336c-2.095-0.487-6.495-1.237-10.609-0.132
									C145.757,271.146,145.321,271.285,144.89,271.446z"/>
								<path style="fill:#FF6365;" d="M147.626,274.559c-0.125,1.171,1.415,2.296,3.44,2.512c2.025,0.217,3.769-0.557,3.894-1.727
									c0.125-1.171-1.415-2.295-3.44-2.512C149.494,272.615,147.751,273.389,147.626,274.559z"/>
								<path style="fill:#FF7D80;" d="M148.562,274.48c-0.095,0.889,1.074,1.742,2.611,1.907c1.537,0.164,2.861-0.422,2.956-1.311
									c0.095-0.889-1.074-1.743-2.612-1.907C149.98,273.004,148.657,273.592,148.562,274.48z"/>
								<g>
									<path style="fill:#ECE7FF;" d="M146.197,271.027c1.043,1.485,3.14,2.47,5.534,2.401c2.152-0.062,4.027-0.962,5.074-2.269
										c-0.274-0.066-0.588-0.132-0.936-0.201c-2.096-0.41-5.415-0.815-8.689-0.162
										C146.851,270.865,146.521,270.939,146.197,271.027z"/>
									<path style="fill:#FFFFFF;" d="M147.181,270.796c1.146,0.948,2.811,1.514,4.651,1.461c1.563-0.045,2.985-0.531,4.037-1.299
										C153.773,270.548,150.454,270.143,147.181,270.796z"/>
								</g>
							</g>
							<g>
								<path style="fill:#FF9A7E;" d="M128.108,269.013c0.049,1.694,2.269,3.005,4.959,2.928c2.69-0.077,4.832-1.513,4.784-3.207
									c-0.048-1.694-2.269-3.005-4.959-2.928C130.201,265.883,128.059,267.319,128.108,269.013z"/>
								<path style="fill:#FFAE90;" d="M129.182,268.592c0.033,1.136,1.754,2.009,3.845,1.949c2.091-0.06,3.76-1.03,3.728-2.166
									c-0.033-1.136-1.754-2.009-3.845-1.949C130.818,266.486,129.149,267.456,129.182,268.592z"/>
							</g>
							<g>
								<path style="fill:#FF9A7E;" d="M164.579,266.077c0.037,1.282,1.717,2.275,3.754,2.216c2.036-0.058,3.657-1.145,3.621-2.427
									c-0.037-1.282-1.717-2.275-3.754-2.216C166.163,263.707,164.542,264.794,164.579,266.077z"/>
								<path style="fill:#FFAE90;" d="M165.392,265.758c0.025,0.86,1.328,1.521,2.911,1.476c1.583-0.045,2.846-0.779,2.821-1.64
									c-0.025-0.86-1.328-1.521-2.91-1.475C166.63,264.164,165.367,264.898,165.392,265.758z"/>
							</g>
						</g>
						<g>
							<path style="fill:#FF9A7E;" d="M120.342,265.057v7.134c-2.038-0.092-3.664-0.366-4.958-0.744
								c-1.466-0.424-2.496-1.008-3.229-1.626c-2.863-2.439-0.584-7.168,3.149-6.687c1.237,0.16,2.473,0.618,3.55,1.122
								c0,0,0,0,0.011,0C119.415,264.519,119.918,264.805,120.342,265.057z"/>
							<path style="fill:#D6806B;" d="M120.342,265.057v7.134c-2.038-0.092-3.664-0.366-4.958-0.744
								c-0.515-0.275-0.951-0.561-1.305-0.87c-2.863-2.439-0.584-7.168,3.149-6.687c0.538,0.069,1.088,0.195,1.626,0.366
								c0,0,0,0,0.011,0C119.415,264.519,119.918,264.805,120.342,265.057z"/>
						</g>
					</g>
					<g>
						<path style="fill:#FFB30F;" d="M142.414,290.653c0,0,0.217,0.092,0.579,0.279c3.516,1.815,6.054,5.074,7.07,8.898
							c1.18,4.443,3.076,12.749,3.076,20.269h-44.46c0,0,1.178-11.454,3.374-20.483c1.294-5.318,5.375-9.548,10.699-10.818
							c1.076-0.257,2.187-0.464,3.283-0.582C126.034,288.216,133.834,294.944,142.414,290.653z"/>
						<path style="fill:#FFA10F;" d="M153.138,320.102h-5.519c0-7.523-1.901-15.825-3.08-20.268
							c-0.859-3.264-2.828-6.115-5.577-8.004c1.122-0.206,2.29-0.596,3.458-1.18c0,0,0.206,0.092,0.572,0.286
							c3.516,1.809,6.058,5.073,7.077,8.898C151.248,304.277,153.138,312.579,153.138,320.102z"/>
						<path style="fill:#FFC915;" d="M137.579,295.05c0,0,4.585,3.438,5.304,18.093c0.106,2.167-1.626,3.991-3.795,3.991h-27.519
							c0,0,1.074-10.214,2.345-16.521c0.729-3.618,2.79-6.908,5.925-8.856c1.425-0.886,3.194-1.614,5.38-1.982
							C125.218,289.775,128.684,294.161,137.579,295.05z"/>
						<g>
							<path style="fill:#FFE02E;" d="M122.224,295.448c-1.836,1.269-3.956,1.383-4.736,0.255c-0.78-1.128,0.076-3.071,1.912-4.34
								c1.836-1.269,3.956-1.383,4.736-0.255C124.916,292.235,124.06,294.179,122.224,295.448z"/>
							<path style="fill:#FFE02E;" d="M116.634,298.578c-0.511,0.884-1.365,1.347-1.909,1.033c-0.544-0.314-0.57-1.285-0.06-2.17
								c0.511-0.884,1.365-1.347,1.909-1.033C117.118,296.722,117.145,297.693,116.634,298.578z"/>
						</g>
					</g>
				</g>
			</g>
		</g>
		<g>
			<g>
				<path style="fill:#C0C8DD;" d="M252.867,341.329c0,1.761-1.428,3.19-3.19,3.19s-3.19-1.428-3.19-3.19
					c0-1.762,1.428-3.19,3.19-3.19S252.867,339.567,252.867,341.329z"/>
			</g>
			<g>
				<path style="fill:#C0C8DD;" d="M257.222,339.647c-0.484,0-0.96-0.233-1.252-0.664c-1.415-2.095-3.768-3.346-6.293-3.346
					c-2.525,0-4.878,1.251-6.293,3.346c-0.467,0.69-1.404,0.871-2.095,0.406c-0.691-0.466-0.872-1.404-0.406-2.095
					c1.978-2.927,5.265-4.674,8.794-4.674c3.529,0,6.816,1.747,8.794,4.674c0.466,0.69,0.285,1.628-0.406,2.095
					C257.807,339.564,257.512,339.647,257.222,339.647z"/>
			</g>
			<g>
				<path style="fill:#C0C8DD;" d="M261.717,334.412c-0.484,0-0.96-0.233-1.251-0.664c-2.427-3.593-6.46-5.738-10.788-5.738
					c-4.328,0-8.362,2.145-10.789,5.738c-0.467,0.691-1.404,0.872-2.095,0.406c-0.691-0.467-0.872-1.405-0.406-2.095
					c2.989-4.425,7.957-7.066,13.289-7.066c5.332,0,10.3,2.641,13.289,7.066c0.467,0.69,0.285,1.628-0.405,2.095
					C262.302,334.329,262.008,334.412,261.717,334.412z"/>
			</g>
		</g>
	</g>
	<g>
		<g>
			<g>
				<path style="fill:#B0BCD6;" d="M423.536,438.352c0,2.189-0.885,4.168-2.312,5.595c-1.437,1.427-3.416,2.312-5.605,2.312H89.236
					c-4.377,0-7.917-3.54-7.917-7.908c0-1.056,0.209-2.065,0.59-2.997c0.39-0.98,0.99-1.856,1.722-2.588
					c0.647-0.647,1.399-1.18,2.246-1.561c1.018-0.485,2.16-0.752,3.359-0.752h326.383c3.312,0,6.147,2.027,7.327,4.901
					C423.327,436.287,423.536,437.296,423.536,438.352z"/>
				<path style="fill:#BEC9E5;" d="M422.944,435.358c-0.402,0.976-0.986,1.851-1.72,2.585c-1.438,1.428-3.419,2.313-5.602,2.313
					H89.231c-3.309,0-6.135-2.022-7.322-4.898c0.392-0.986,0.986-1.861,1.72-2.595c1.438-1.428,3.42-2.313,5.602-2.313h326.391
					C418.931,430.45,421.767,432.482,422.944,435.358z"/>
			</g>
			<path style="fill:#CED7F2;" d="M414.65,437.397H90.228c-1.725,0-3.124-1.398-3.124-3.124v0c0-1.725,1.398-3.124,3.124-3.124
				H414.65c1.725,0,3.124,1.398,3.124,3.124v0C417.774,435.999,416.375,437.397,414.65,437.397z"/>
		</g>
		<g>
			<g>
				<g>
					<path style="fill:#FFA98B;" d="M263.948,405.607c-0.166,2.912-0.643,4.871-0.643,4.871c-9.038,2.063-12.52,4.54-12.52,4.54
						c-0.218,0.332-0.446,0.653-0.705,0.953c-0.56,0.715-1.213,1.337-1.866,1.866c-2.788,2.259-6.384,3.265-9.971,3.109
						c-4.197-0.187-6.986-1.783-8.841-3.773c-1.731-1.866-2.788-4.146-3.161-6.519c-0.622-3.97,0.643-8.198,3.731-11.142
						c3.98-3.804,10.188-6.084,15.94-7.442c7.493-1.772,14.21-1.98,14.21-1.98C263.741,395.149,264.186,401.367,263.948,405.607z"/>
					<path style="fill:#FFB89B;" d="M263.948,405.607c-8.405,2.062-14.666,5.161-14.666,5.161c-0.725,1.13-1.638,2.063-2.57,2.819
						c-2.788,2.259-6.384,3.265-9.971,3.109c-4.187-0.186-6.975-1.783-8.83-3.772c-0.01-0.01-0.01-0.01-0.021-0.021
						c-1.254-1.368-1.897-3.234-1.772-5.078c0.197-3.068,1.492-6.063,3.855-8.312c9.193-8.779,30.15-9.421,30.15-9.421
						c0.197,0.27,0.383,0.549,0.56,0.829c2.27,3.586,3.089,7.649,3.265,11.142C264.021,403.337,264.01,404.539,263.948,405.607z"/>
					<path style="fill:#FFC4A6;" d="M263.948,402.062c-3.254,0.943-12.157,3.679-16.593,6.612c0,0-7.224,7.006-14.365,4.633
						c-4.436-1.472-6.157-6.664-3.586-10.561c3.078-4.664,11.017-10.375,31.28-11.826
						C262.953,394.506,263.772,398.569,263.948,402.062z"/>
					<path style="fill:#FFCCB3;" d="M237.526,399.125c0.962,1.424,0.026,3.736-2.089,5.165c-2.115,1.429-4.61,1.433-5.572,0.009
						c-0.962-1.424-0.026-3.736,2.089-5.165S236.564,397.701,237.526,399.125z"/>
					<path style="fill:#FFCCB3;" d="M229.286,405.21c0.592,0.29,0.723,1.24,0.291,2.12c-0.432,0.88-1.262,1.358-1.854,1.068
						c-0.592-0.29-0.723-1.24-0.291-2.12C227.863,405.397,228.693,404.919,229.286,405.21z"/>
					<path style="fill:#DD9579;" d="M263.948,405.607c-0.166,2.912-0.643,4.871-0.643,4.871c-9.038,2.063-12.52,4.54-12.52,4.54
						c-0.218,0.332-0.446,0.653-0.705,0.953c-4.477-7.607-4.415-19.091-4.166-23.9c7.493-1.772,14.21-1.98,14.21-1.98
						C263.741,395.149,264.186,401.367,263.948,405.607z"/>
				</g>
				<g>
					<path style="fill:#C6425C;" d="M285.702,379.983c0,0-22.41,3.864-35.49,8.504c-1.007,0.357-1.698,1.274-1.764,2.341
						c-0.282,4.593-0.521,17.224,4.54,25.096c0.654,1.017,1.894,1.49,3.073,1.222c5.435-1.233,21.576-4.837,33.423-6.909
						C289.484,410.236,286.823,384.745,285.702,379.983z"/>
					<path style="fill:#B73B58;" d="M289.486,410.239c-11.846,2.073-27.994,5.669-33.425,6.903c-1.182,0.27-2.415-0.197-3.068-1.223
						c-0.694-1.078-1.285-2.239-1.783-3.462c11.017-3.244,31.653-7.504,37.571-8.696
						C289.206,407.555,289.486,410.239,289.486,410.239z"/>
					<path style="fill:#D6495D;" d="M286.079,381.977l2.33,18.387c0,0-22.5,3.49-34.034,6.776c-1.012,0.288-2.059-0.327-2.274-1.357
						c-0.525-2.514-1.307-7.228-1.137-12.39c0.064-1.944,1.406-3.617,3.289-4.103C260.083,387.788,273.377,384.46,286.079,381.977z"
						/>
					<g>
						<g>
							<path style="fill:none;stroke:#FFFFFF;stroke-width:1.5546;stroke-linecap:round;stroke-linejoin:round;" d="
								M252.457,389.498c0,0-0.041,0.303-0.091,0.858"/>
							
								<path style="fill:none;stroke:#FFFFFF;stroke-width:1.5546;stroke-linecap:round;stroke-linejoin:round;stroke-dasharray:1.8096,3.6192;" d="
								M252.191,393.97c-0.055,4.677,0.475,12.309,3.746,19.392"/>
							<path style="fill:none;stroke:#FFFFFF;stroke-width:1.5546;stroke-linecap:round;stroke-linejoin:round;" d="
								M256.744,414.989c0.135,0.255,0.275,0.509,0.418,0.762"/>
						</g>
					</g>
				</g>
			</g>
			<g>
				<g>
					<path style="fill:#FFB89B;" d="M336.985,321.417c-15.857,10.613-27.476,7.369-33.342,4.156
						c-2.083-1.14-3.472-3.172-3.855-5.452c-0.093-0.497-0.124-1.005-0.114-1.523c0.135-4.82-0.342-11.225-0.342-11.225
						c8.115,0.767,35.892-1.648,35.892-1.648c0,4.747,0.498,8.872,0.964,11.701C336.602,319.924,336.985,321.417,336.985,321.417z"
						/>
					<path style="fill:#FF9A7E;" d="M336.187,317.427c-0.684,0.114-1.358,0.207-2.042,0.29c-12.935,1.555-24.336,2.28-34.358,2.405
						c-0.093-0.497-0.124-1.005-0.114-1.523c0.135-4.82-0.342-11.225-0.342-11.225c8.115,0.767,35.892-1.648,35.892-1.648
						C335.223,310.472,335.721,314.597,336.187,317.427z"/>
				</g>
				<g>
					<g>
						<path style="fill:#FFA6AB;" d="M293.426,344.204c-2.188,5.267-6.578,8.451-9.807,7.11c-3.228-1.341-4.072-6.698-1.884-11.965
							c2.188-5.267,6.578-8.451,9.806-7.11C294.77,333.579,295.614,338.936,293.426,344.204z"/>
						<path style="fill:#FFA6AB;" d="M282.565,356.283c-0.547,2.206-2.086,3.722-3.438,3.387c-1.352-0.335-2.005-2.395-1.458-4.601
							c0.547-2.206,2.086-3.722,3.438-3.387C282.46,352.017,283.112,354.077,282.565,356.283z"/>
					</g>
					<g>
						<path style="fill:#FF7D80;" d="M373.623,430.45H263.689c2.27-18.055,8.105-57.833,11.183-78.624
							c2.021-13.65,11.028-25.31,23.786-30.564c0.809-0.332,1.275-0.487,1.275-0.487c0.518,2.021,1.824,3.783,3.7,4.809
							c5.866,3.213,17.485,6.436,33.352-4.167c0.124,0.031,0.249,0.052,0.373,0.073c0.373,0.073,0.746,0.145,1.119,0.228
							c0.155,0.031,0.311,0.062,0.456,0.104c0.124,0.021,0.238,0.052,0.352,0.083c0.321,0.073,0.643,0.156,0.964,0.249
							c0.042,0.01,0.073,0.021,0.114,0.031c0.197,0.052,0.394,0.114,0.591,0.176c0.021-0.01,0.052,0,0.073,0.01
							c0.093,0.021,0.187,0.052,0.269,0.083c0.083,0.021,0.155,0.042,0.228,0.072c0.021,0,0.052,0.01,0.073,0.021
							c0.093,0.031,0.176,0.052,0.269,0.093c0.187,0.052,0.363,0.114,0.549,0.176c0.145,0.052,0.29,0.104,0.435,0.155
							c0.259,0.093,0.518,0.187,0.767,0.29c0.404,0.156,0.809,0.321,1.213,0.497c0.093,0.031,0.187,0.073,0.28,0.114
							c0.384,0.166,0.757,0.342,1.13,0.529c0.062,0.021,0.124,0.052,0.186,0.093c0.259,0.124,0.508,0.249,0.757,0.383
							c0.28,0.135,0.549,0.28,0.819,0.446c0.228,0.114,0.446,0.249,0.663,0.373c0.767,0.446,1.513,0.922,2.228,1.43
							c0.363,0.249,0.715,0.508,1.068,0.777c0.342,0.259,0.684,0.518,1.016,0.798c0.456,0.363,0.912,0.746,1.347,1.161
							c0.549,0.487,1.078,0.995,1.596,1.524c0.29,0.301,0.58,0.612,0.86,0.922c0.042,0.031,0.073,0.072,0.093,0.104
							c0.249,0.269,0.487,0.539,0.725,0.819c0.104,0.114,0.197,0.238,0.29,0.352c0.218,0.259,0.425,0.518,0.632,0.788
							c0.135,0.176,0.27,0.342,0.394,0.518c0.166,0.218,0.332,0.446,0.497,0.674c0.187,0.27,0.373,0.539,0.56,0.808
							c0.135,0.197,0.27,0.394,0.394,0.601c0.145,0.228,0.29,0.456,0.425,0.684c0.238,0.373,0.456,0.746,0.663,1.13
							c0.031,0.031,0.041,0.073,0.062,0.104c0.197,0.352,0.383,0.705,0.57,1.068c0.166,0.321,0.321,0.643,0.477,0.964
							c0.529,1.109,1.005,2.249,1.409,3.42c0.114,0.301,0.218,0.612,0.311,0.922c0.114,0.352,0.228,0.694,0.321,1.047
							c0.114,0.394,0.228,0.788,0.321,1.192c0.104,0.383,0.186,0.777,0.27,1.171c0.021,0.083,0.041,0.166,0.062,0.249
							c0.083,0.415,0.166,0.84,0.238,1.264c0.612,3.555,1.171,7.151,1.7,10.748c0.166,1.192,0.342,2.394,0.508,3.596
							c0.249,1.793,0.487,3.586,0.715,5.369c0.083,0.591,0.155,1.192,0.228,1.783c0.529,4.146,0.995,8.25,1.42,12.23
							c0.124,1.14,0.238,2.26,0.352,3.379c0.062,0.56,0.114,1.119,0.166,1.669c0.062,0.56,0.114,1.109,0.166,1.658
							c0.27,2.736,0.518,5.4,0.736,7.96c0.176,2.052,0.342,4.042,0.497,5.96c0.114,1.441,0.228,2.829,0.321,4.177
							c0.062,0.902,0.135,1.783,0.197,2.643c0,0.103,0.01,0.207,0.021,0.311c0.041,0.57,0.083,1.13,0.114,1.679
							c0.186,2.55,0.332,4.871,0.456,6.923c0,0.073,0.01,0.145,0.01,0.207c0.01,0.207,0.021,0.415,0.031,0.622
							c0.052,0.757,0.093,1.472,0.124,2.145C373.52,427.807,373.623,430.45,373.623,430.45z"/>
						<path style="fill:#D6495D;" d="M373.623,430.45H263.689c2.27-18.055,8.105-57.833,11.183-78.624
							c2.021-13.65,11.028-25.31,23.786-30.564c0.809-0.332,1.275-0.487,1.275-0.487c0.518,2.021,1.824,3.783,3.7,4.809
							c5.866,3.213,17.485,6.436,33.352-4.167c0.124,0.031,0.249,0.052,0.373,0.073c0.373,0.073,0.746,0.145,1.119,0.228
							c0.155,0.031,0.311,0.062,0.456,0.104c0.124,0.021,0.238,0.052,0.352,0.083c0.321,0.073,0.643,0.156,0.964,0.249
							c0.042,0.01,0.073,0.021,0.114,0.031c0.218,0.052,0.446,0.114,0.663,0.187c0.093,0.021,0.187,0.052,0.269,0.083
							c0.083,0.021,0.155,0.042,0.228,0.072c0.114,0.031,0.228,0.062,0.342,0.114c0.187,0.052,0.363,0.114,0.549,0.176
							c0.145,0.052,0.29,0.104,0.435,0.155c0.197,0.073,0.383,0.145,0.58,0.207c0.477,0.176,0.943,0.373,1.399,0.58
							c0.093,0.031,0.187,0.073,0.28,0.114c0.384,0.166,0.757,0.342,1.13,0.529c0.062,0.021,0.124,0.052,0.186,0.093
							c0.259,0.124,0.508,0.249,0.757,0.383c0.28,0.135,0.549,0.28,0.819,0.446c0.228,0.114,0.446,0.249,0.663,0.373
							c0.767,0.446,1.513,0.922,2.228,1.43c0.363,0.249,0.715,0.508,1.068,0.777c0.342,0.259,0.684,0.518,1.016,0.798
							c0.456,0.363,0.912,0.746,1.347,1.161c0.549,0.477,1.078,0.985,1.596,1.524c0.29,0.301,0.58,0.612,0.86,0.922
							c0.042,0.031,0.073,0.072,0.093,0.104c0.249,0.269,0.487,0.539,0.725,0.819c0.104,0.114,0.197,0.238,0.29,0.352
							c0.218,0.259,0.425,0.518,0.632,0.788c0.135,0.176,0.27,0.342,0.394,0.518c0.166,0.218,0.332,0.446,0.497,0.674
							c0.187,0.27,0.373,0.539,0.56,0.808c0.135,0.197,0.27,0.394,0.394,0.601c0.145,0.228,0.29,0.456,0.425,0.684
							c0.238,0.373,0.456,0.746,0.663,1.13c0.031,0.031,0.041,0.073,0.062,0.104c0.197,0.352,0.383,0.705,0.57,1.068
							c0.166,0.321,0.321,0.643,0.477,0.964c0.529,1.109,1.005,2.249,1.409,3.42c0.114,0.301,0.218,0.612,0.311,0.922
							c0.114,0.352,0.228,0.694,0.321,1.047c0.114,0.394,0.228,0.788,0.321,1.192c0.104,0.383,0.186,0.777,0.27,1.171
							c0.021,0.083,0.041,0.166,0.062,0.249c0.083,0.415,0.166,0.84,0.238,1.264c0.612,3.555,1.171,7.151,1.7,10.748
							c0.176,1.202,0.342,2.394,0.508,3.596c0.249,1.793,0.487,3.586,0.715,5.369c0.083,0.591,0.155,1.192,0.228,1.783
							c0.529,4.146,0.995,8.25,1.42,12.23c0.124,1.14,0.238,2.26,0.352,3.379c0.062,0.56,0.114,1.119,0.166,1.669
							c0.062,0.56,0.114,1.109,0.166,1.658c0.27,2.736,0.518,5.4,0.736,7.96c0.176,2.052,0.342,4.042,0.497,5.96
							c0.114,1.441,0.228,2.829,0.321,4.177c0.062,0.902,0.135,1.783,0.197,2.643c0,0.103,0.01,0.207,0.021,0.311
							c0.041,0.57,0.083,1.13,0.114,1.679c0.186,2.55,0.332,4.871,0.456,6.923c0,0.073,0.01,0.145,0.01,0.207
							c0.01,0.218,0.031,0.415,0.041,0.622c0.042,0.757,0.083,1.472,0.114,2.145C373.52,427.807,373.623,430.45,373.623,430.45z"/>
						<path style="fill:#E2505E;" d="M343.055,430.45h-79.367c2.27-18.055,8.105-57.833,11.183-78.624
							c2.021-13.65,11.028-25.31,23.786-30.564c0.809-0.332,1.275-0.487,1.275-0.487c0.518,2.021,1.824,3.783,3.7,4.809
							c5.866,3.213,17.485,6.436,33.352-4.167c0.124,0.031,0.249,0.052,0.373,0.073c1.223,0.218,2.425,0.508,3.596,0.871
							c0.218,0.052,0.435,0.114,0.643,0.186c1.102,0.346,2.183,0.757,3.232,1.209c0.155,0.519,0.229,0.767,0.384,1.286
							c-3.597,5.518-12.297,22.297-3.834,45.492c0,0,10.63,20.869,12.101,48.932C353.793,425.434,349.032,430.45,343.055,430.45z"/>
						<path style="fill:#EA5C6A;" d="M339.203,325.266c0,0-17.817,21.776-3.794,52.296c0,0,8.936,17.642,8.185,37.493
							c-0.195,5.153-4.491,9.206-9.648,9.206h-65.041l9.754-73.095c0,0,1.155-16.427,18.972-25.453
							C297.63,325.713,306.043,342.917,339.203,325.266z"/>
						<g>
							<path style="fill:#FF7C90;" d="M293.538,342.946c-2.826,4.274-7.337,6.272-10.076,4.461
								c-2.738-1.811-2.667-6.743,0.159-11.018c2.826-4.275,7.337-6.272,10.076-4.461
								C296.435,333.739,296.364,338.672,293.538,342.946z"/>
							<path style="fill:#FF7C90;" d="M282.97,354.359c-0.916,2.233-2.818,3.569-4.249,2.982c-1.431-0.587-1.848-2.873-0.932-5.107
								c0.916-2.234,2.818-3.569,4.249-2.982C283.468,349.839,283.886,352.125,282.97,354.359z"/>
						</g>
					</g>
					<path style="fill:#C14059;" d="M373.147,421.101h-0.01c-2.021,0.487-4.115,0.725-6.26,0.663
						c-4.177-0.114-8.779-0.114-13.526-0.042c-4.384,0.073-8.903,0.207-13.308,0.384c-0.974,0.031-1.938,0.073-2.892,0.114
						c-12.417,0.539-23.579,1.306-28.17,1.638c-0.353,0.031-0.684,0-1.016-0.083c-0.974-0.228-1.814-0.902-2.239-1.845
						c-0.062-0.145-0.114-0.28-0.166-0.425c-1.109,0.228-2.031,0.446-2.726,0.653c-1.296,0.373-1.907,0.653-1.907,0.653
						c-0.508,0.549-1.067,1.026-1.637,1.451c-0.57,0.425-1.151,0.798-1.741,1.109c-3.514,1.897-7.639,2.27-11.525,1.358
						c-2.322-0.539-4.167-1.399-5.628-2.467c-1.41-1.016-2.467-2.208-3.254-3.451c-1.368-2.156-2.052-4.571-2.114-6.975
						c-0.021-0.694,0.031-1.389,0.114-2.073c0.01-0.249,0.042-0.487,0.083-0.725c0.031-0.166,0.073-0.321,0.104-0.487
						c0.031-0.155,0.072-0.301,0.104-0.456c0.104-0.414,0.218-0.808,0.352-1.213c0.042-0.124,0.083-0.249,0.124-0.373
						c0.383-1.026,0.881-2.021,1.492-2.943c0.083-0.114,0.176-0.228,0.259-0.342c0.238-0.342,0.487-0.663,0.757-0.984
						c0.114-0.124,0.228-0.259,0.342-0.384c0.28-0.301,0.581-0.591,0.891-0.871c0.104-0.104,0.218-0.207,0.332-0.311
						c0.435-0.363,0.891-0.715,1.378-1.026c0.591-0.384,1.213-0.736,1.845-1.068c0.083-0.042,0.166-0.083,0.238-0.124
						c0.622-0.311,1.264-0.591,1.928-0.86c0.104-0.042,0.197-0.083,0.301-0.114c0.674-0.27,1.358-0.508,2.062-0.725
						c0.052-0.021,0.114-0.031,0.166-0.052c0.684-0.207,1.378-0.394,2.083-0.56c0.083-0.021,0.166-0.042,0.249-0.062
						c0.694-0.166,1.409-0.311,2.125-0.446c0.155-0.031,0.311-0.052,0.466-0.083c0.694-0.124,1.389-0.228,2.073-0.321
						c0.166-0.021,0.332-0.041,0.497-0.062c0.663-0.073,1.316-0.145,1.98-0.207c0.093-0.01,0.186-0.021,0.29-0.031
						c0.694-0.062,1.389-0.104,2.083-0.145c0.083,0,0.166-0.01,0.249-0.01c0.073-0.01,0.145-0.01,0.228-0.01
						c0.342-0.021,0.684-0.031,1.036-0.041c0.145-0.01,0.29-0.01,0.435-0.021c0.456-0.01,0.902-0.021,1.348-0.031
						c0.01-0.052,0.021-0.124,0.031-0.187c0.228-1.399,1.316-2.508,2.726-2.726c10.416-1.658,24.553-1.72,34.98-1.461
						c3.265,0.083,6.167,0.197,8.478,0.301c3.483,0.166,5.617,0.311,5.617,0.311c-1.399-5.379-6.022-19.537-8.239-26.243
						c-1.005-3.078-1.607-6.281-1.586-9.514c0.062-16.593,10.634-23.558,10.634-23.558c1.088,0.352,2.177,0.798,3.234,1.296
						c0.166,0.218,0.332,0.446,0.497,0.674c0.187,0.27,0.373,0.539,0.56,0.808c0.135,0.197,0.27,0.394,0.394,0.601
						c0.145,0.228,0.29,0.456,0.425,0.684c0.238,0.373,0.456,0.746,0.663,1.13c0.031,0.031,0.041,0.073,0.062,0.104
						c0.197,0.352,0.383,0.705,0.57,1.068c0.166,0.321,0.321,0.643,0.477,0.964c0.529,1.109,1.005,2.249,1.409,3.42
						c0.114,0.301,0.218,0.612,0.311,0.922c0.114,0.352,0.228,0.694,0.321,1.047c0.114,0.394,0.228,0.788,0.321,1.192
						c0.104,0.383,0.186,0.777,0.27,1.171c0.021,0.083,0.041,0.166,0.062,0.249c0.083,0.415,0.166,0.84,0.238,1.264
						c0.612,3.555,1.171,7.151,1.7,10.748c0.176,1.202,0.342,2.394,0.508,3.596c0.249,1.793,0.487,3.586,0.715,5.369
						c0.083,0.591,0.155,1.192,0.228,1.783c0.529,4.146,0.995,8.25,1.42,12.23c0.124,1.14,0.238,2.26,0.352,3.379
						c0.062,0.56,0.114,1.119,0.166,1.669c0.062,0.56,0.114,1.109,0.166,1.658c0.27,2.736,0.518,5.4,0.736,7.96
						c0.176,2.052,0.342,4.042,0.497,5.96c0.114,1.441,0.228,2.829,0.321,4.177c0.062,0.902,0.135,1.783,0.197,2.643
						c0,0.103,0.01,0.207,0.021,0.311c0.041,0.57,0.083,1.13,0.114,1.679c0.186,2.55,0.332,4.871,0.456,6.923
						c0,0.073,0.01,0.145,0.01,0.207C373.115,420.697,373.136,420.894,373.147,421.101z"/>
				</g>
			</g>
			<g>
				<g>
					<path style="fill:#FFB89B;" d="M368.856,259.749c-3.327,1.669-6.882,4.198-10.572,7.887c0,0,0-0.01,0.01-0.021
						c0.145-0.549,8.225-10.934,6.242-24.992c-3.331-23.609-27.82-51.051-97.448-43.817c0,0-41.115-1.233-35.197,47.22
						c0.477,3.835,0.383,7.721-0.321,11.525c-0.311,1.679-0.653,3.669-0.974,5.887c-3.565,24.19,13.246,46.723,37.446,50.226
						c15.298,2.218,36.358,2.819,64.933-0.612c6.042-0.725,11.94-2.498,17.257-5.441c3.721-2.052,7.514-4.84,10.136-8.53
						c0,0,23.931,1.254,32.959-13.111C403.234,270.207,385.491,251.426,368.856,259.749z"/>
					<path style="fill:#FF9A7E;" d="M359.559,261.739c4.483-21.894-8.523-40.809-26.598-49.225
						c-19.775-9.204-43.395-10.157-43.395-10.157c-45.717-1.327-53.777,14.162-54.441,15.375
						c9.204-19.609,31.964-18.925,31.964-18.925c69.628-7.234,94.119,20.21,97.445,43.82c1.99,14.054-6.094,24.439-6.239,24.988
						C358.875,265.646,359.167,263.656,359.559,261.739z"/>
					<g>
						<path style="fill:#FF9A7E;" d="M386.019,280.261c-1.555,3.4-5.151,7.379-13.339,9.763c-3.4,0.995-7.587,1.71-12.748,1.99
							V277.95c0,0,4.83-5.379,10.675-8.468c4.042-2.135,8.582-3.182,12.344-0.601C386.579,271.368,387.854,276.26,386.019,280.261z"
							/>
						<path style="fill:#D6806B;" d="M381.003,282.137c-1.192,2.612-3.576,5.566-8.322,7.887c-3.4,0.995-7.587,1.71-12.748,1.99
							V277.95c0,0,3.654-4.069,8.451-7.161c1.994-1.285,4.428-1.86,6.734-1.301c0.975,0.237,1.924,0.648,2.828,1.27
							C381.552,273.245,382.827,278.136,381.003,282.137z"/>
					</g>
				</g>
				<g>
					<g>
						<ellipse style="fill:#3A346E;" cx="312.78" cy="256.835" rx="15.45" ry="18.419"/>
						<ellipse style="fill:#2D2B59;" cx="310.812" cy="258.159" rx="10.863" ry="12.887"/>
						<path style="fill:#FFFFFF;" d="M316.309,250.738c0,4.099-3.323,7.421-7.422,7.421c-4.099,0-7.422-3.323-7.422-7.421
							c0-4.099,3.323-7.422,7.422-7.422C312.986,243.316,316.309,246.639,316.309,250.738z"/>
					</g>
					<g>
						<ellipse style="fill:#3A346E;" cx="251.299" cy="254.912" rx="12.47" ry="14.866"/>
						<ellipse style="fill:#2D2B59;" cx="249.71" cy="255.981" rx="8.767" ry="10.401"/>
						<path style="fill:#FFFFFF;" d="M254.147,249.991c0,3.308-2.682,5.99-5.99,5.99c-3.308,0-5.99-2.682-5.99-5.99
							c0-3.308,2.682-5.99,5.99-5.99C251.465,244.001,254.147,246.682,254.147,249.991z"/>
					</g>
					<path style="fill:#2D2B59;" d="M313.268,230.174c6.108-0.154,17.035,0.987,23.166,10.101c0,0,0.049-19.52-23.335-19.327
						c-1.901,0.016-3.593,1.221-4.258,3.002c-0.036,0.096-0.071,0.195-0.105,0.295C307.729,227.224,310.124,230.253,313.268,230.174
						z"/>
					<path style="fill:#2D2B59;" d="M251.694,229.969c-4.514-0.114-12.59,0.729-17.122,7.465c0,0-0.036-14.426,17.246-14.284
						c1.405,0.012,2.656,0.903,3.147,2.219c0.027,0.071,0.052,0.144,0.078,0.218C255.787,227.789,254.018,230.028,251.694,229.969z"
						/>
					<path style="fill:#2D2B59;" d="M278.684,265.088c-1.111-1.993-3.237-3.333-5.677-3.333c-3.587,0-6.498,2.911-6.498,6.51
						c0,1.401,0.447,2.694,1.196,3.756c-1.824-1.268-3.007-3.37-3.007-5.761c0-3.901,3.152-7.053,7.053-7.053
						C275.242,259.206,278.141,261.742,278.684,265.088z"/>
					<g>
						<path style="fill:#2D2B59;" d="M299.987,283.371c0,0-0.43,10.721-9.612,14.764c-3.9,1.722-8.373,1.787-12.351,0.287
							c-4.213-1.604-9.351-5.321-10.368-14.007c0,0,1.122-0.391,3.039-0.913c5.112-1.343,15.872-3.495,26.058-1.07
							C297.835,282.693,298.917,283.006,299.987,283.371z"/>
						<path style="fill:#FF6365;" d="M293.485,291.212c0.39,2.868-3.315,5.74-8.276,6.414c-4.961,0.675-9.299-1.103-9.689-3.97
							c-0.39-2.868,3.315-5.74,8.276-6.415C288.757,286.567,293.095,288.344,293.485,291.212z"/>
						<path style="fill:#FF7D80;" d="M291.179,291.083c0.296,2.177-2.517,4.357-6.283,4.869c-3.766,0.512-7.059-0.837-7.355-3.014
							c-0.296-2.177,2.517-4.357,6.283-4.869S290.883,288.906,291.179,291.083z"/>
						<g>
							<path style="fill:#ECE7FF;" d="M296.746,282.434c-2.457,3.722-7.542,6.289-13.429,6.289c-5.291,0-9.963-2.08-12.627-5.219
								c0.669-0.182,1.435-0.365,2.287-0.56c5.121-1.156,13.247-2.384,21.336-1.01C295.129,282.081,295.944,282.239,296.746,282.434
								z"/>
							<path style="fill:#FFFFFF;" d="M294.314,281.935c-2.749,2.409-6.8,3.917-11.325,3.917c-3.844,0-7.371-1.095-10.011-2.907
								C278.099,281.789,286.224,280.56,294.314,281.935z"/>
						</g>
					</g>
					<g>
						<ellipse style="fill:#FF9A7E;" cx="329.071" cy="276.211" rx="11.979" ry="7.543"/>
						<path style="fill:#FFAE90;" d="M338.382,275.254c0,2.795-4.169,5.06-9.311,5.06c-5.142,0-9.311-2.265-9.311-5.06
							c0-2.795,4.169-5.06,9.311-5.06C334.213,270.194,338.382,272.459,338.382,275.254z"/>
					</g>
					<g>
						<path style="fill:#FF9A7E;" d="M251.234,271.561c0,3.153-4.059,5.71-9.067,5.71c-5.007,0-9.067-2.556-9.067-5.71
							c0-3.153,4.059-5.71,9.067-5.71C247.174,265.852,251.234,268.408,251.234,271.561z"/>
						<path style="fill:#FFAE90;" d="M249.214,270.837c0,2.115-3.155,3.83-7.047,3.83c-3.892,0-7.047-1.715-7.047-3.83
							c0-2.115,3.155-3.83,7.047-3.83C246.059,267.007,249.214,268.721,249.214,270.837z"/>
					</g>
				</g>
				<g>
					<path style="fill:#2D2B59;" d="M396.166,277.089c0.529-12.914-13.754-24.118-27.31-17.34
						c-3.327,1.669-6.882,4.198-10.561,7.867c0.145-0.549,8.229-10.934,6.239-24.988c-3.327-23.61-27.818-51.055-97.445-43.82
						c0,0-22.822-0.684-32.005,19.008c0,0-0.788-1.876-1.71-4.996c-7.214-24.408,7.141-50.288,31.622-57.253
						c0.166-0.052,0.332-0.093,0.508-0.145c17.391-4.85,36.016-2.747,51.998,5.659c16.624,8.748,35.77,18.113,58.695,25.12
						C414.235,197.825,417.086,248.927,396.166,277.089z"/>
					<path style="fill:#3A346E;" d="M409.068,238.858c-0.134,3.477-2.853,6.297-6.32,6.594c-1.892,0.162-3.939,0.289-6.033,0.337
						c-10.385,0.249-19.63-6.467-22.791-16.365c-4.436-13.898-20.667-38.566-79.888-43.271c-13.297-1.057-26.719,0.042-39.581,3.565
						c-7.473,2.052-15.557,5.089-22.936,9.577c0.28-19.785,13.505-38.047,33.477-43.727c0.166-0.052,0.332-0.093,0.508-0.145
						c17.391-4.85,36.016-2.747,51.998,5.659c16.624,8.748,35.767,18.117,58.693,25.123
						C399.908,193.451,409.946,216.041,409.068,238.858z"/>
					<path style="fill:#403D7F;" d="M405.346,236.227c0,0-17.101,4.775-24.319-10.438c0,0-12.104-32.981-64.518-43.197
						c0,0-40.524-8.443-71.221,2.779c-3.161,1.155-6.112-2.164-4.5-5.118c4.936-9.044,16.682-22.203,43.518-23.646
						c0,0,19.1-0.888,34.091,9.106c0,0,22.794,14.325,49.799,21.876c21.189,5.925,36.501,24.76,37.124,46.753
						C405.337,234.961,405.346,235.59,405.346,236.227z"/>
					<g>
						<path style="fill:#52529E;" d="M293.196,162.333c0.546,4.757-6.104,9.426-14.852,10.429
							c-8.748,1.003-16.282-2.04-16.827-6.797c-0.546-4.757,6.104-9.426,14.852-10.43
							C285.117,154.533,292.65,157.576,293.196,162.333z"/>
						<path style="fill:#52529E;" d="M258.487,166.469c1.038,1.797-0.8,4.801-4.106,6.71c-3.305,1.908-6.826,1.998-7.863,0.201
							c-1.038-1.797,0.801-4.801,4.106-6.71C253.929,164.762,257.45,164.672,258.487,166.469z"/>
					</g>
				</g>
			</g>
		</g>
		<g>
			<path style="fill:#A2A2E0;" d="M292.628,425.467v4.983h-76.13v-4.983c0-3.511,2.841-6.362,6.362-6.362h63.406
				C289.776,419.105,292.628,421.957,292.628,425.467z"/>
			<path style="fill:#9595D3;" d="M292.628,425.467v4.983h-48.329v-4.983c0-3.511,2.842-6.362,6.362-6.362h35.605
				C289.776,419.105,292.628,421.957,292.628,425.467z"/>
			<g>
				<path style="fill:#7373B7;" d="M292.628,425.467v4.983h-44.031v-4.983c0-3.511,2.852-6.362,6.362-6.362h31.307
					C289.776,419.105,292.628,421.957,292.628,425.467z"/>
				<path style="fill:#8080C6;" d="M284.104,425.467v4.983h-35.507v-4.983c0-3.511,2.852-6.362,6.362-6.362h22.782
					C281.252,419.105,284.104,421.957,284.104,425.467z"/>
				<path style="fill:#8F8FD3;" d="M281.163,428.737h-30.361v-3.695c0-2.437,1.975-4.412,4.412-4.412h21.536
					c2.437,0,4.412,1.975,4.412,4.412V428.737z"/>
				<g>
					<path style="fill:#A1A1E2;" d="M259.618,422.237h-4.498c-0.657,0-1.19-0.533-1.19-1.19l0,0c0-0.657,0.533-1.19,1.19-1.19h4.498
						c0.657,0,1.19,0.533,1.19,1.19l0,0C260.808,421.704,260.275,422.237,259.618,422.237z"/>
					<path style="fill:#A1A1E2;" d="M264.145,422.237h-1.271c-0.657,0-1.19-0.533-1.19-1.19l0,0c0-0.657,0.533-1.19,1.19-1.19h1.271
						c0.657,0,1.19,0.533,1.19,1.19l0,0C265.335,421.704,264.802,422.237,264.145,422.237z"/>
				</g>
			</g>
			<path style="fill:#AFAFEA;" d="M242.101,425.282v3.459h-24.553v-3.459c0-1.261,0.419-2.424,1.128-3.353
				c0.631-0.826,1.621-1.301,2.66-1.301h22.731C241.906,422.996,242.101,425.282,242.101,425.282z"/>
			<g>
				<path style="fill:#C5C9EA;" d="M226.081,422.237h-4.498c-0.657,0-1.19-0.533-1.19-1.19l0,0c0-0.657,0.533-1.19,1.19-1.19h4.498
					c0.657,0,1.19,0.533,1.19,1.19l0,0C227.271,421.704,226.738,422.237,226.081,422.237z"/>
				<path style="fill:#C5C9EA;" d="M230.608,422.237h-1.271c-0.657,0-1.19-0.533-1.19-1.19l0,0c0-0.657,0.533-1.19,1.19-1.19h1.271
					c0.657,0,1.19,0.533,1.19,1.19l0,0C231.798,421.704,231.265,422.237,230.608,422.237z"/>
			</g>
		</g>
		<g>
			<g>
				<path style="fill:#FFA98B;" d="M315.449,411.701c-0.715,2.726-1.503,4.457-1.503,4.457c-6.436,0.249-10.53,1.13-12.696,1.752
					c-1.296,0.373-1.907,0.653-1.907,0.653c-1.026,1.088-2.208,1.928-3.379,2.56c-3.513,1.897-7.639,2.27-11.525,1.358
					c-4.54-1.047-7.255-3.368-8.882-5.918c-1.368-2.156-2.052-4.571-2.114-6.975c-0.135-4.737,2.125-9.452,6.333-12.189
					c5.058-3.296,12.168-4.54,18.635-4.871c8.665-0.446,16.21,0.715,16.21,0.715C317.698,399.855,316.662,407.162,315.449,411.701z"
					/>
				<path style="fill:#FFB89B;" d="M315.446,411.701c-9.856,0.477-16.997,2.363-16.997,2.363c-1.026,1.088-2.208,1.928-3.379,2.56
					c-3.503,1.897-7.638,2.27-11.525,1.358c-4.54-1.047-7.255-3.368-8.872-5.918c-0.005-0.008-0.01-0.016-0.015-0.024
					c-0.982-1.551-1.329-3.443-1.02-5.252c0.639-3.729,2.76-7.196,6.134-9.39c11.826-7.711,34.845-4.156,34.845-4.156
					C317.695,399.855,316.659,407.162,315.446,411.701z"/>
				<path style="fill:#FFC4A6;" d="M315.203,394.642c0,0-28.399-4.898-37.246,6.669c-2.943,3.848-1.815,9.589,2.502,11.785
					c3.623,1.843,9.453,2.349,18.281-3.002c0,0,7.69-1.414,17.379-1.414C316.12,408.68,317.841,399.952,315.203,394.642z"/>
				<g>
					<path style="fill:#FFCCB3;" d="M286.108,398.185c0.896,1.406-0.263,3.749-2.59,5.233c-2.327,1.484-4.94,1.547-5.837,0.142
						c-0.897-1.406,0.263-3.748,2.59-5.232C282.598,396.843,285.212,396.779,286.108,398.185z"/>
					<path style="fill:#FFCCB3;" d="M277.222,404.767c0.523,0.302,0.542,1.248,0.042,2.113c-0.5,0.865-1.328,1.322-1.851,1.02
						c-0.523-0.302-0.542-1.248-0.042-2.113C275.871,404.922,276.699,404.466,277.222,404.767z"/>
				</g>
				<path style="fill:#DD9579;" d="M315.449,411.701c-0.715,2.726-1.503,4.457-1.503,4.457c-6.436,0.249-10.53,1.13-12.696,1.752
					c-0.052-0.073-0.093-0.145-0.124-0.228c-4.353-9.805-3.451-20.387-2.715-25.154c8.665-0.446,16.21,0.715,16.21,0.715
					C317.698,399.855,316.662,407.162,315.449,411.701z"/>
			</g>
			<g>
				<g>
					<path style="fill:#E2505E;" d="M354.097,329.35c0,0-10.567,6.965-10.639,23.556c-0.014,3.236,0.581,6.444,1.594,9.517
						c2.213,6.71,6.835,20.868,8.238,26.245c0,0-30.483-2.102-49.076,0.846c-1.408,0.223-2.502,1.324-2.73,2.731
						c-0.752,4.639-1.77,15.439,2.66,25.44c0.56,1.264,1.866,2.033,3.245,1.932c8.306-0.607,38.03-2.633,57.905-2.098
						c11.087,0.299,21.086-6.992,23.781-17.751c0.294-1.173,0.539-2.422,0.727-3.753c0.398-2.812,0.25-5.672-0.378-8.442
						c-1.363-6.016-4.357-18.497-7.908-28.794c-3.541-10.269-10.213-19.252-19.242-25.29
						C359.717,331.778,356.944,330.286,354.097,329.35z"/>
					<path style="fill:#D6495D;" d="M389.813,395.978c-0.197,1.347-0.435,2.612-0.736,3.793
						c-2.695,10.758-12.696,18.044-23.786,17.744c-19.875-0.531-49.591,1.496-57.897,2.103c-1.382,0.101-2.689-0.674-3.25-1.94
						c-0.697-1.574-1.259-3.166-1.702-4.754c12.852-0.757,43.468-2.384,61.523-1.897c11.09,0.29,21.081-6.996,23.776-17.754
						c0.301-1.182,0.549-2.446,0.736-3.793c0.27-1.886,0.28-3.804,0.073-5.69c0.342,1.43,0.632,2.705,0.87,3.773
						C390.051,390.329,390.206,393.18,389.813,395.978z"/>
					<path style="fill:#EA5C6A;" d="M355.208,331.837c0,0,16.157,7.94,21.154,23.597l7.474,23.131
						c2.543,7.87,0.282,16.671-6.112,21.916c-2.756,2.261-6.483,4.174-11.522,5.257c0,0-48.916,1.721-62.242,3.498
						c0,0-1.949-8.167-0.502-15.593c0.245-1.256,1.272-2.212,2.538-2.399c5.659-0.837,22.964-2.795,50.045-0.553
						c0,0-4.449-16.189-7.699-26.443c-1.961-6.186-2.38-12.804-0.846-19.11C348.641,340.433,350.894,335.458,355.208,331.837z"/>
					<g>
						<path style="fill:#FF7C90;" d="M371.272,343.254c2.652,4.594,2.284,9.773-0.823,11.567c-3.107,1.794-7.776-0.476-10.429-5.07
							c-2.653-4.594-2.284-9.773,0.823-11.567C363.951,336.39,368.62,338.66,371.272,343.254z"/>
						<path style="fill:#FF7C90;" d="M377.199,356.216c0.748,1.684,0.432,3.458-0.707,3.965c-1.139,0.506-2.668-0.449-3.416-2.132
							c-0.748-1.684-0.432-3.459,0.707-3.965C374.921,353.578,376.45,354.532,377.199,356.216z"/>
					</g>
					<g>
						<g>
							<path style="fill:#FFFFFF;" d="M306.334,392.942c-0.053,0-0.106-0.006-0.16-0.02c-0.349-0.088-0.56-0.442-0.471-0.79
								c0.144-0.566,0.241-0.872,0.241-0.872c0.109-0.341,0.473-0.533,0.818-0.422c0.342,0.108,0.531,0.474,0.423,0.817
								c-0.003,0.01-0.091,0.29-0.221,0.797C306.89,392.747,306.626,392.942,306.334,392.942z"/>
						</g>
						<g>
							<path style="fill:#FFFFFF;" d="M305.759,395.103c-0.352-0.048-0.685,0.2-0.742,0.552c-0.076,0.552-0.143,1.142-0.209,1.779
								c-0.029,0.362,0.229,0.676,0.59,0.714h0.067c0.324,0,0.609-0.247,0.647-0.59c0.057-0.609,0.124-1.19,0.2-1.722
								C306.358,395.483,306.111,395.151,305.759,395.103z M305.93,401.26v-0.247c0-0.352-0.285-0.647-0.647-0.647
								s-0.657,0.295-0.657,0.647v0.238c0,0.504,0.01,1.028,0.038,1.551c0.01,0.352,0.295,0.628,0.647,0.628h0.029
								c0.352-0.019,0.638-0.314,0.619-0.676C305.94,402.24,305.93,401.735,305.93,401.26z M306.263,406.198
								c-0.057-0.352-0.39-0.59-0.733-0.552c-0.362,0.048-0.609,0.371-0.561,0.733c0.076,0.58,0.171,1.17,0.285,1.77
								c0.057,0.314,0.324,0.533,0.638,0.533c0.038,0,0.076-0.01,0.114-0.01c0.352-0.067,0.59-0.409,0.523-0.761
								C306.425,407.331,306.33,406.76,306.263,406.198z M307.852,412.917c-0.038-0.095-0.067-0.2-0.095-0.295
								c-0.029-0.076-0.057-0.152-0.086-0.228c-0.114-0.381-0.228-0.752-0.342-1.123c-0.105-0.343-0.457-0.542-0.809-0.438
								c-0.343,0.095-0.542,0.457-0.438,0.809c0.086,0.305,0.181,0.618,0.285,0.923c0.009,0.048,0.029,0.086,0.038,0.133
								c0.067,0.219,0.143,0.428,0.219,0.647c0.095,0.276,0.343,0.438,0.618,0.438c0.067,0,0.143-0.009,0.209-0.038
								C307.795,413.63,307.976,413.259,307.852,412.917z"/>
						</g>
						<g>
							<path style="fill:#FFFFFF;" d="M308.966,417.835c-0.238,0-0.467-0.13-0.582-0.356c-0.135-0.266-0.265-0.532-0.391-0.798
								c-0.154-0.325-0.016-0.714,0.309-0.867c0.323-0.152,0.714-0.017,0.867,0.309c0.121,0.255,0.246,0.511,0.377,0.767
								c0.162,0.321,0.034,0.712-0.287,0.875C309.165,417.813,309.064,417.835,308.966,417.835z"/>
						</g>
					</g>
				</g>
			</g>
		</g>
		<g>
			<g>
				<path style="fill:#FFB30F;" d="M371.474,420.751h-4.886c-1.188,0-2.151-0.963-2.151-2.151c0-1.188,0.963-2.151,2.151-2.151
					h4.886c2.6,0,4.717-2.115,4.717-4.716v-7.72c0-2.6-2.116-4.717-4.717-4.717h-4.886c-1.188,0-2.151-0.963-2.151-2.151
					s0.963-2.151,2.151-2.151h4.886c4.973,0,9.019,4.046,9.019,9.019v7.72C380.492,416.705,376.447,420.751,371.474,420.751z"/>
				<path style="fill:#FFA10F;" d="M380.495,404.014v7.722c0,4.969-4.044,9.013-9.023,9.013h-4.883
					c-0.957,0-1.764-0.613-2.043-1.473c0.215,0.075,0.452,0.118,0.688,0.118h4.883c4.979,0,9.023-3.958,9.023-8.84v-7.561
					c0-2.828-1.355-5.345-3.463-6.958C378.538,397.551,380.495,400.551,380.495,404.014z"/>
				<path style="fill:#FFC41D;" d="M378.168,403.024c0-1.371-0.288-2.743-0.954-3.943c-0.168-0.302-0.36-0.6-0.578-0.87
					c-1.293-1.714-3.315-2.722-5.462-2.722h-4.493c-0.752,0-1.361,0.609-1.361,1.361c0,0.752,0.609,1.361,1.361,1.361h5.668
					c0,0,4.288,0.72,4.288,4.609v8.577c0,0.957-0.18,1.922-0.648,2.756c-1.516,2.702-4.439,2.566-4.439,2.566l-5.251,0.029
					c-1.375,0.489-1.325,1.599-1.325,1.599h4.966c1.544,0,3.088-0.374,4.379-1.221c1.453-0.955,2.349-2.233,2.906-3.419
					c0.637-1.356,0.944-2.851,0.944-4.346V403.024z"/>
				<g>
					<path style="fill:#FFDB31;" d="M370.505,396.555h-1.815c-0.342,0-0.619-0.277-0.619-0.619l0,0c0-0.342,0.277-0.619,0.619-0.619
						h1.815c0.342,0,0.619,0.277,0.619,0.619l0,0C371.125,396.277,370.847,396.555,370.505,396.555z"/>
					<path style="fill:#FFDB31;" d="M372.94,396.555h-0.663c-0.342,0-0.619-0.277-0.619-0.619l0,0c0-0.342,0.277-0.619,0.619-0.619
						h0.663c0.342,0,0.619,0.277,0.619,0.619l0,0C373.559,396.277,373.282,396.555,372.94,396.555z"/>
				</g>
			</g>
			<g>
				<path style="fill:#FFA10F;" d="M368.188,390.657v31.264c0,4.711-3.818,8.529-8.529,8.529h-23.273
					c-4.711,0-8.529-3.818-8.529-8.529v-31.264c0-1.355,1.097-2.452,2.452-2.452h35.426
					C367.091,388.205,368.188,389.302,368.188,390.657z"/>
				<path style="fill:#FFB30F;" d="M362.079,390.657v31.264c0,4.711-3.818,8.529-8.529,8.529h-17.165
					c-4.711,0-8.529-3.818-8.529-8.529v-31.264c0-1.355,1.097-2.452,2.452-2.452h29.318
					C360.982,388.205,362.079,389.302,362.079,390.657z"/>
				<path style="fill:#FFC915;" d="M349.922,426.529h-11.984c-4.423,0-8.008-3.585-8.008-8.008v-26.984
					c0-0.616,0.499-1.115,1.115-1.115h25.771c0.616,0,1.115,0.499,1.115,1.115v26.984
					C357.931,422.943,354.345,426.529,349.922,426.529z"/>
				<g>
					<path style="fill:#FFE02E;" d="M330.909,396.54L330.909,396.54c-0.939,0-1.7-0.761-1.7-1.7v-1.498c0-0.939,0.761-1.7,1.7-1.7
						l0,0c0.939,0,1.7,0.761,1.7,1.7v1.498C332.609,395.779,331.848,396.54,330.909,396.54z"/>
					<path style="fill:#FFE02E;" d="M330.909,404.413L330.909,404.413c-0.939,0-1.7-0.761-1.7-1.7v-3.327c0-0.939,0.761-1.7,1.7-1.7
						l0,0c0.939,0,1.7,0.761,1.7,1.7v3.327C332.609,403.652,331.848,404.413,330.909,404.413z"/>
				</g>
				<g>
					<path style="fill:#F6F6F7;" d="M359.2,408.01c-0.17,1.11-0.56,2.33-1.27,3.61c-1.52,2.75-4.5,5.84-9.91,9.01
						c-7.93-4.65-10.64-9.13-11.17-12.62c-0.98-6.33,7.51-9.46,10.88-4.02c0.2,0.31,0.29,0.51,0.29,0.51s0.1-0.2,0.29-0.51
						c2.37-3.82,7.26-3.41,9.62-0.64C358.94,404.52,359.49,406.12,359.2,408.01z"/>
					<path style="fill:#FFFFFF;" d="M357.93,403.35v8.27c-1.52,2.75-4.5,5.84-9.91,9.01c-7.93-4.65-10.64-9.13-11.17-12.62
						c-0.98-6.33,7.51-9.46,10.88-4.02c0.2,0.31,0.29,0.51,0.29,0.51s0.1-0.2,0.29-0.51C350.68,400.17,355.57,400.58,357.93,403.35z
						"/>
				</g>
			</g>
		</g>
		<g>
			<g>
				<g>
					<path style="fill:#7373B7;" d="M231.158,408.882H122.496c-6.681,0-12.436-4.715-13.744-11.273l-11.715-58.66
						c-1.06-5.312,2.996-10.264,8.421-10.264H214.11c6.692,0,12.446,4.715,13.754,11.273l11.716,58.66
						C240.639,403.93,236.573,408.882,231.158,408.882z"/>
					<path style="fill:#8080C6;" d="M225.423,408.882H122.496c-6.681,0-12.436-4.715-13.744-11.273l-11.715-58.66
						c-1.06-5.312,2.996-10.264,8.421-10.264h102.917c6.681,0,12.436,4.715,13.754,11.273l11.705,58.66
						C234.905,403.93,230.839,408.882,225.423,408.882z"/>
				</g>
				<g>
					<path style="fill:#9595D3;" d="M219,408.882H110.338c-5.775,0-10.861-3.521-12.972-8.72c-0.329-0.813-0.597-1.668-0.772-2.553
						l-11.715-58.66c-1.06-5.312,2.996-10.264,8.421-10.264h108.652c0.206,0,0.401,0,0.597,0.01
						c6.424,0.278,11.89,4.9,13.157,11.263l11.715,58.66C228.481,403.93,224.415,408.882,219,408.882z"/>
					<path style="fill:#A3A3DD;" d="M206.615,400.173H97.953c-0.196,0-0.391,0-0.587-0.01c-0.329-0.813-0.597-1.668-0.772-2.553
						l-1.555-7.803l-10.161-50.856c-1.06-5.312,2.996-10.264,8.421-10.264h108.652c0.206,0,0.401,0,0.597,0.01
						c0.34,0.813,0.597,1.668,0.772,2.553l11.715,58.65C216.096,395.211,212.03,400.173,206.615,400.173z"/>
					<path style="fill:#B0B0E8;" d="M193.709,390.344h-89.923c-2.672,0-4.973-1.886-5.496-4.507l-8.866-44.375
						c-1.019-5.106,2.879-9.865,8.094-9.865h89.923c2.672,0,4.973,1.886,5.496,4.507l8.866,44.365
						C202.823,385.574,198.914,390.344,193.709,390.344z"/>
					<g>
						<path style="fill:#C5C9EA;" d="M107.205,334.772h-6.434c-1.241,0-2.246-1.006-2.246-2.246l0,0
							c0-1.241,1.006-2.246,2.246-2.246h6.434c1.241,0,2.246,1.005,2.246,2.246l0,0
							C109.451,333.767,108.445,334.772,107.205,334.772z"/>
						<path style="fill:#C5C9EA;" d="M94.87,334.772h-1.18c-1.241,0-2.246-1.006-2.246-2.246l0,0c0-1.241,1.006-2.246,2.246-2.246
							h1.18c1.241,0,2.246,1.005,2.246,2.246l0,0C97.116,333.767,96.111,334.772,94.87,334.772z"/>
					</g>
				</g>
			</g>
			<g>
				<g>
					<path style="fill:#8080C6;" d="M187.518,418.775h-36.876l2.008-36.742c0.113-2.079,1.843-3.716,3.922-3.716h15.288
						c2.975,0,5.57,2.007,6.331,4.89L187.518,418.775z"/>
					<path style="fill:#9595D3;" d="M183.874,418.775h-33.232l2.008-36.742c0.113-2.079,1.843-3.716,3.922-3.716h11.643
						c2.975,0,5.58,2.007,6.331,4.89L183.874,418.775z"/>
				</g>
				<g>
					<g>
						<path style="fill:#C4C4F4;" d="M178.911,418.775h-36.866l2.007-36.742c0.113-2.079,1.832-3.716,3.922-3.716h15.278
							c2.975,0,5.58,2.007,6.331,4.89L178.911,418.775z"/>
						<path style="fill:#D2D2F7;" d="M171.757,418.775h-29.711l2.007-36.742c0.113-2.079,1.832-3.716,3.922-3.716h8.133
							c2.975,0,5.57,2.007,6.321,4.89L171.757,418.775z"/>
						<path style="fill:#E0E0F7;" d="M148.203,380.701h6.329c1.898,0,3.551,1.294,4.007,3.136l8.166,32.967h-22.51l1.655-33.863
							C145.912,381.686,146.947,380.701,148.203,380.701z"/>
					</g>
					<g>
						<path style="fill:#9292D6;" d="M161.585,390.125c0,2.152-1.493,3.953-3.49,4.427c-0.34,0.093-0.7,0.134-1.071,0.134
							c-2.522,0-4.561-2.038-4.561-4.561c0-2.522,2.038-4.561,4.561-4.561c0.371,0,0.731,0.041,1.071,0.134
							C160.092,386.172,161.585,387.973,161.585,390.125z"/>
						<path style="fill:#8080C6;" d="M161.585,390.125c0,2.152-1.493,3.953-3.49,4.427c-1.997-0.474-3.48-2.275-3.48-4.427
							c0-2.152,1.482-3.953,3.48-4.427C160.092,386.172,161.585,387.973,161.585,390.125z"/>
					</g>
				</g>
			</g>
			<g>
				<g>
					<path style="fill:#6767A8;" d="M210.65,423.696v6.743h-75.76v-6.743c0-2.718,2.203-4.921,4.921-4.921h65.918
						C208.447,418.775,210.65,420.978,210.65,423.696z"/>
					<path style="fill:#7373B7;" d="M206.193,423.696v6.743h-71.302v-6.743c0-2.718,2.203-4.921,4.921-4.921h61.46
						C203.99,418.775,206.193,420.978,206.193,423.696z"/>
					<path style="fill:#8080C6;" d="M201.509,423.696v6.743h-66.618v-6.743c0-2.718,2.203-4.921,4.921-4.921h56.776
						C199.306,418.775,201.509,420.978,201.509,423.696z"/>
				</g>
				<g>
					<path style="fill:#A3A3DD;" d="M196.361,423.696v6.743h-61.47v-6.743c0-2.347,1.647-4.314,3.85-4.797
						c0.34-0.082,0.7-0.124,1.071-0.124h51.629C194.158,418.775,196.361,420.978,196.361,423.696z"/>
					<path style="fill:#B0B0E8;" d="M188.454,423.744v6.696h-53.564v-6.831c0-2.378,1.669-4.37,3.9-4.86h44.668
						C186.223,418.749,188.454,420.98,188.454,423.744z"/>
					<path style="fill:#B9B9EF;" d="M183.725,428.493h-47.154v-5.092c0-1.668,1.352-3.02,3.02-3.02h41.113
						c1.668,0,3.02,1.352,3.02,3.02V428.493z"/>
					<g>
						<path style="fill:#C5C9EA;" d="M147.47,421.871h-4.095c-0.662,0-1.199-0.537-1.199-1.199l0,0c0-0.662,0.537-1.2,1.199-1.2
							h4.095c0.662,0,1.199,0.537,1.199,1.2l0,0C148.67,421.334,148.133,421.871,147.47,421.871z"/>
						<path style="fill:#C5C9EA;" d="M139.984,421.871h-0.641c-0.662,0-1.199-0.537-1.199-1.199l0,0c0-0.662,0.537-1.2,1.199-1.2
							h0.641c0.662,0,1.199,0.537,1.199,1.2l0,0C141.183,421.334,140.646,421.871,139.984,421.871z"/>
					</g>
				</g>
			</g>
		</g>
	</g>
	<g>
		<g>
			<path style="fill:#FFFFFF;" d="M378.455,140.661h-4.084v-4.084c0-1.546-1.253-2.799-2.799-2.799
				c-1.546,0-2.799,1.253-2.799,2.799v4.084h-4.084c-1.546,0-2.799,1.253-2.799,2.799c0,1.546,1.253,2.799,2.799,2.799h4.084v4.084
				c0,1.546,1.253,2.799,2.799,2.799c1.546,0,2.799-1.253,2.799-2.799v-4.084h4.084c1.546,0,2.799-1.253,2.799-2.799
				C381.254,141.915,380.001,140.661,378.455,140.661z"/>
			<path style="fill:#FFFFFF;" d="M145.223,126.64h-4.084v-4.084c0-1.546-1.253-2.799-2.799-2.799s-2.799,1.253-2.799,2.799v4.084
				h-4.084c-1.546,0-2.799,1.253-2.799,2.799c0,1.546,1.253,2.799,2.799,2.799h4.084v4.084c0,1.546,1.253,2.799,2.799,2.799
				s2.799-1.253,2.799-2.799v-4.084h4.084c1.546,0,2.799-1.253,2.799-2.799C148.023,127.893,146.769,126.64,145.223,126.64z"/>
			<path style="fill:#FFFFFF;" d="M227.319,305.601h-4.084v-4.084c0-1.546-1.253-2.799-2.799-2.799
				c-1.546,0-2.799,1.253-2.799,2.799v4.084h-4.084c-1.546,0-2.799,1.253-2.799,2.799c0,1.546,1.253,2.799,2.799,2.799h4.084v4.084
				c0,1.546,1.253,2.799,2.799,2.799c1.546,0,2.799-1.253,2.799-2.799v-4.084h4.084c1.546,0,2.799-1.253,2.799-2.799
				C230.118,306.854,228.865,305.601,227.319,305.601z"/>
			<path style="fill:#FFFFFF;" d="M76.598,362.654h-4.084v-4.084c0-1.546-1.253-2.799-2.799-2.799s-2.799,1.253-2.799,2.799v4.084
				h-4.084c-1.546,0-2.799,1.253-2.799,2.799c0,1.546,1.253,2.799,2.799,2.799h4.084v4.084c0,1.546,1.253,2.799,2.799,2.799
				s2.799-1.253,2.799-2.799v-4.084h4.084c1.546,0,2.799-1.253,2.799-2.799C79.397,363.907,78.144,362.654,76.598,362.654z"/>
			<path style="fill:#FFFFFF;" d="M418.308,401.474h-4.084v-4.084c0-1.546-1.253-2.799-2.799-2.799s-2.799,1.253-2.799,2.799v4.084
				h-4.084c-1.546,0-2.799,1.253-2.799,2.799c0,1.546,1.253,2.799,2.799,2.799h4.084v4.084c0,1.546,1.253,2.799,2.799,2.799
				s2.799-1.253,2.799-2.799v-4.084h4.084c1.546,0,2.799-1.253,2.799-2.799C421.107,402.728,419.854,401.474,418.308,401.474z"/>
			<path style="fill:#FFFFFF;" d="M390.43,153.326h-2.876v-2.876c0-1.089-0.883-1.971-1.971-1.971c-1.089,0-1.971,0.883-1.971,1.971
				v2.876h-2.876c-1.089,0-1.971,0.883-1.971,1.971c0,1.089,0.883,1.971,1.971,1.971h2.876v2.876c0,1.089,0.883,1.971,1.971,1.971
				c1.089,0,1.971-0.883,1.971-1.971v-2.876h2.876c1.089,0,1.971-0.883,1.971-1.971C392.401,154.208,391.518,153.326,390.43,153.326
				z"/>
			<path style="fill:#FFFFFF;" d="M63.344,349.98h-2.876v-2.876c0-1.089-0.882-1.971-1.971-1.971c-1.089,0-1.971,0.883-1.971,1.971
				v2.876h-2.876c-1.089,0-1.971,0.883-1.971,1.971c0,1.089,0.883,1.971,1.971,1.971h2.876v2.876c0,1.089,0.883,1.971,1.971,1.971
				c1.089,0,1.971-0.883,1.971-1.971v-2.876h2.876c1.089,0,1.971-0.883,1.971-1.971C65.316,350.863,64.433,349.98,63.344,349.98z"/>
			<path style="fill:#FFFFFF;" d="M159.689,118.38h-2.876v-2.876c0-1.089-0.883-1.971-1.971-1.971c-1.089,0-1.971,0.883-1.971,1.971
				v2.876h-2.876c-1.089,0-1.971,0.883-1.971,1.971s0.883,1.971,1.971,1.971h2.876v2.876c0,1.089,0.883,1.971,1.971,1.971
				c1.089,0,1.971-0.883,1.971-1.971v-2.876h2.876c1.089,0,1.971-0.883,1.971-1.971S160.778,118.38,159.689,118.38z"/>
			<path style="fill:#FFFFFF;" d="M401.691,413.402h-2.876v-2.876c0-1.089-0.883-1.971-1.971-1.971
				c-1.089,0-1.971,0.883-1.971,1.971v2.876h-2.876c-1.089,0-1.971,0.883-1.971,1.971c0,1.089,0.883,1.971,1.971,1.971h2.876v2.876
				c0,1.089,0.883,1.971,1.971,1.971c1.089,0,1.971-0.883,1.971-1.971v-2.876h2.876c1.089,0,1.971-0.883,1.971-1.971
				C403.662,414.285,402.779,413.402,401.691,413.402z"/>
		</g>
		<g>
			<g>
				
					<ellipse transform="matrix(0.1554 -0.9879 0.9879 0.1554 117.2888 646.7313)" style="fill:#B0BCD6;" cx="436.858" cy="254.774" rx="14.162" ry="14.162"/>
				<circle style="fill:#BEC9E5;" cx="437.501" cy="253.071" r="11.138"/>
				
					<ellipse transform="matrix(0.9246 -0.3809 0.3809 0.9246 -62.4563 186.1197)" style="fill:#CED7F2;" cx="439.014" cy="250.859" rx="7.763" ry="7.763"/>
			</g>
			<g>
				
					<ellipse transform="matrix(0.1024 -0.9947 0.9947 0.1024 127.6902 343.9305)" style="fill:#B0BCD6;" cx="254.43" cy="101.207" rx="14.162" ry="14.162"/>
				<path style="fill:#BEC9E5;" d="M266.211,99.504c0,6.152-4.987,11.138-11.138,11.138c-6.152,0-11.138-4.987-11.138-11.138
					c0-6.151,4.987-11.138,11.138-11.138C261.224,88.366,266.211,93.353,266.211,99.504z"/>
				
					<ellipse transform="matrix(0.2305 -0.9731 0.9731 0.2305 102.7655 324.5401)" style="fill:#CED7F2;" cx="256.586" cy="97.293" rx="7.763" ry="7.763"/>
			</g>
			<g>
				
					<ellipse transform="matrix(0.9239 -0.3827 0.3827 0.9239 -151.4977 57.1302)" style="fill:#B0BCD6;" cx="67.858" cy="409.381" rx="14.162" ry="14.162"/>
				
					<ellipse transform="matrix(0.9732 -0.2298 0.2298 0.9732 -91.8329 26.6442)" style="fill:#BEC9E5;" cx="68.501" cy="407.677" rx="11.138" ry="11.138"/>
				<path style="fill:#CED7F2;" d="M77.776,405.466c0,4.287-3.475,7.763-7.763,7.763c-4.287,0-7.763-3.475-7.763-7.763
					c0-4.287,3.476-7.763,7.763-7.763C74.301,397.703,77.776,401.178,77.776,405.466z"/>
			</g>
			<g>
				
					<ellipse transform="matrix(0.221 -0.9753 0.9753 0.221 -40.0689 689.0161)" style="fill:#B0BCD6;" cx="411.276" cy="369.59" rx="14.162" ry="14.162"/>
				
					<ellipse transform="matrix(0.8846 -0.4663 0.4663 0.8846 -124.0209 234.5207)" style="fill:#BEC9E5;" cx="411.919" cy="367.887" rx="11.138" ry="11.138"/>
				
					<ellipse transform="matrix(0.9137 -0.4065 0.4065 0.9137 -112.9432 199.6221)" style="fill:#CED7F2;" cx="413.432" cy="365.676" rx="7.763" ry="7.763"/>
			</g>
			<g>
				<path style="fill:#B0BCD6;" d="M437.092,228.026c0,3.911-3.17,7.081-7.081,7.081c-3.911,0-7.081-3.17-7.081-7.081
					c0-3.911,3.17-7.081,7.081-7.081C433.922,220.945,437.092,224.116,437.092,228.026z"/>
				<path style="fill:#BEC9E5;" d="M435.902,227.175c0,3.076-2.493,5.569-5.569,5.569c-3.076,0-5.569-2.493-5.569-5.569
					c0-3.076,2.493-5.569,5.569-5.569C433.408,221.606,435.902,224.099,435.902,227.175z"/>
				<path style="fill:#CED7F2;" d="M434.971,226.069c0,2.144-1.738,3.881-3.881,3.881c-2.144,0-3.881-1.738-3.881-3.881
					c0-2.144,1.738-3.881,3.881-3.881C433.233,222.188,434.971,223.925,434.971,226.069z"/>
			</g>
			<g>
				<circle style="fill:#B0BCD6;" cx="228.753" cy="106.358" r="7.081"/>
				<path style="fill:#BEC9E5;" d="M234.644,105.506c0,3.076-2.493,5.569-5.569,5.569c-3.076,0-5.569-2.493-5.569-5.569
					c0-3.076,2.493-5.569,5.569-5.569C232.15,99.937,234.644,102.43,234.644,105.506z"/>
				<path style="fill:#CED7F2;" d="M233.713,104.4c0,2.144-1.738,3.881-3.881,3.881c-2.144,0-3.881-1.738-3.881-3.881
					c0-2.144,1.738-3.881,3.881-3.881C231.975,100.519,233.713,102.257,233.713,104.4z"/>
			</g>
			<g>
				<path style="fill:#B0BCD6;" d="M94.248,88.295c0,6.537-5.299,11.837-11.837,11.837s-11.837-5.299-11.837-11.837
					c0-6.537,5.299-11.837,11.837-11.837S94.248,81.757,94.248,88.295z"/>
				<circle style="fill:#BEC9E5;" cx="82.949" cy="86.871" r="9.309"/>
				<path style="fill:#CED7F2;" d="M90.702,85.023c0,3.583-2.905,6.488-6.488,6.488c-3.583,0-6.488-2.905-6.488-6.488
					c0-3.583,2.905-6.488,6.488-6.488C87.797,78.534,90.702,81.439,90.702,85.023z"/>
			</g>
			<g>
				<circle style="fill:#B0BCD6;" cx="66.506" cy="320.661" r="7.081"/>
				<circle style="fill:#BEC9E5;" cx="66.827" cy="319.809" r="5.569"/>
				<path style="fill:#CED7F2;" d="M71.465,318.703c0,2.144-1.738,3.881-3.881,3.881c-2.144,0-3.882-1.738-3.882-3.881
					c0-2.144,1.738-3.881,3.882-3.881C69.728,314.822,71.465,316.56,71.465,318.703z"/>
			</g>
		</g>
		
			<ellipse transform="matrix(0.1638 -0.9865 0.9865 0.1638 132.6865 417.4451)" style="fill:#C0C8DD;" cx="312.587" cy="130.453" rx="8.828" ry="8.828"/>
		<path style="fill:#C0C8DD;" d="M149.269,319.891c0,2.438-1.976,4.414-4.414,4.414c-2.438,0-4.414-1.976-4.414-4.414
			c0-2.438,1.976-4.414,4.414-4.414C147.293,315.477,149.269,317.453,149.269,319.891z"/>
		<path style="fill:#C0C8DD;" d="M372.602,318.568c0,2.438-1.976,4.414-4.414,4.414c-2.438,0-4.414-1.976-4.414-4.414
			c0-2.438,1.976-4.414,4.414-4.414C370.626,314.154,372.602,316.13,372.602,318.568z"/>
		<circle style="fill:#C0C8DD;" cx="157.17" cy="311.746" r="7.213"/>
		<path style="fill:#C0C8DD;" d="M335.842,117.832c0,3.984-3.23,7.213-7.213,7.213s-7.213-3.229-7.213-7.213
			c0-3.984,3.23-7.213,7.213-7.213S335.842,113.849,335.842,117.832z"/>
	</g>
</g>
</svg>
